<?xml version="1.0" standalone="no"?>
<!DOCTYPE svg PUBLIC "-//W3C//DTD SVG 20010904//EN"
 "http://www.w3.org/TR/2001/REC-SVG-20010904/DTD/svg10.dtd">
<svg version="1.0" xmlns="http://www.w3.org/2000/svg"
 width="700.000000pt" height="700.000000pt" viewBox="0 0 700.000000 700.000000"
 preserveAspectRatio="xMidYMid meet">
<metadata>
Created by potrace 1.11, written by Peter Selinger 2001-2013
</metadata>
<g transform="translate(0.000000,700.000000) scale(0.100000,-0.100000)"
fill="#000000" stroke="none">
<path d="M1043 4310 c0 -1397 3 -2541 6 -2541 3 -1 476 -2 1051 -3 l1045 -1
240 -193 c132 -106 247 -198 255 -205 37 -30 266 -213 275 -220 5 -4 21 -17
35 -28 14 -11 40 -33 59 -47 19 -15 48 -39 65 -53 17 -14 135 -108 261 -210
127 -101 237 -189 245 -196 8 -7 67 -53 130 -104 63 -50 126 -101 140 -113 14
-11 45 -37 70 -56 25 -19 47 -37 50 -40 6 -7 93 -76 146 -117 l41 -32 1 792
c0 436 1 799 1 807 1 13 60 15 474 15 l472 0 1 2543 0 2542 -2531 0 -2532 0 0
-2540z m4428 1885 c1 -26 1 -3778 0 -3787 -1 -4 -214 -9 -473 -10 l-473 -3 0
-457 c0 -252 -2 -458 -5 -458 -5 0 -84 62 -176 137 -21 18 -172 139 -334 269
-162 130 -312 250 -334 268 -21 17 -57 46 -80 64 -22 18 -48 39 -56 45 -8 7
-49 39 -90 72 l-75 60 -850 5 -850 5 -1 1895 c0 1042 1 1900 3 1905 2 7 643
10 1898 10 1888 0 1895 0 1896 -20z"/>
<path d="M2725 5357 c-24 -27 -129 -147 -160 -181 -5 -6 -59 -67 -119 -134
l-109 -124 24 -22 c13 -13 87 -79 164 -147 77 -68 142 -126 145 -129 4 -4 122
-109 308 -275 101 -90 96 -83 81 -101 -8 -10 -137 -141 -286 -292 -150 -151
-273 -277 -273 -281 0 -8 433 -441 442 -441 3 0 140 135 304 300 164 165 301
300 304 300 3 0 23 -17 45 -36 22 -20 71 -64 109 -98 38 -33 74 -65 80 -71 6
-5 52 -46 101 -90 50 -44 95 -84 101 -90 6 -5 44 -39 85 -75 40 -36 94 -83
118 -106 l44 -41 196 221 c254 287 230 255 203 277 -13 10 -59 51 -104 91 -44
40 -86 78 -92 83 -6 6 -49 44 -96 85 -47 41 -92 82 -100 90 -8 8 -51 46 -95
85 -44 38 -95 83 -112 100 l-33 30 325 326 c179 180 325 329 325 333 0 3 -99
105 -221 227 l-221 222 -342 -342 c-290 -290 -345 -341 -357 -329 -13 12 -148
133 -229 204 -19 17 -85 76 -145 130 -61 55 -146 131 -189 169 -43 39 -97 87
-120 108 -65 60 -71 61 -101 24z"/>
</g>
</svg>
