<svg width="6" height="4" viewBox="0 0 6 4" fill="none" xmlns="http://www.w3.org/2000/svg">
<path d="M0.292893 0.292893C0.683417 -0.097631 1.31658 -0.0976311 1.70711 0.292893L3.69915 2.28494C4.08967 2.67546 4.08967 3.30863 3.69915 3.69915C3.30863 4.08968 2.67546 4.08968 2.28494 3.69915L0.292894 1.70711C-0.0976307 1.31658 -0.0976314 0.683417 0.292893 0.292893Z" fill="#F2F2F2"/>
<path d="M5.69533 0.292893C5.3048 -0.097631 4.67164 -0.0976311 4.28111 0.292893L2.28907 2.28494C1.89855 2.67546 1.89854 3.30863 2.28907 3.69915C2.67959 4.08967 3.31276 4.08968 3.70328 3.69915L5.69533 1.70711C6.08585 1.31658 6.08585 0.683417 5.69533 0.292893Z" fill="#F2F2F2"/>
</svg>
